<mxfile host="www.draw.io" modified="2020-01-16T19:43:20.136Z" agent="Mozilla/5.0 (Windows NT 10.0; Win64; x64) AppleWebKit/537.36 (KHTML, like Gecko) Chrome/79.0.3945.117 Safari/537.36" etag="0YQmyXV51P07-skAlI8U" version="12.5.5" type="github">
  <diagram id="r4IDT4Dc3eKuW9jMtJGU" name="Page-1">
    <mxGraphModel dx="1422" dy="762" grid="1" gridSize="10" guides="1" tooltips="1" connect="1" arrows="1" fold="1" page="1" pageScale="1" pageWidth="827" pageHeight="1169" math="0" shadow="0">
      <root>
        <mxCell id="0"/>
        <mxCell id="1" parent="0"/>
        <mxCell id="bDNnM9pzQ9YGO85PiFF2-9" value="Payment Filter" style="rounded=0;whiteSpace=wrap;html=1;verticalAlign=top;align=left;dashed=1;" vertex="1" parent="1">
          <mxGeometry x="200" y="120" width="480" height="360" as="geometry"/>
        </mxCell>
        <mxCell id="bDNnM9pzQ9YGO85PiFF2-17" style="edgeStyle=orthogonalEdgeStyle;rounded=0;orthogonalLoop=1;jettySize=auto;html=1;exitX=1;exitY=0.5;exitDx=0;exitDy=0;entryX=0;entryY=0.5;entryDx=0;entryDy=0;fontSize=11;" edge="1" parent="1" source="bDNnM9pzQ9YGO85PiFF2-1" target="bDNnM9pzQ9YGO85PiFF2-6">
          <mxGeometry relative="1" as="geometry"/>
        </mxCell>
        <mxCell id="bDNnM9pzQ9YGO85PiFF2-1" value="Siti&lt;br&gt;Agri" style="ellipse;whiteSpace=wrap;html=1;aspect=fixed;fillColor=#d5e8d4;strokeColor=#82b366;" vertex="1" parent="1">
          <mxGeometry x="40" y="160" width="80" height="80" as="geometry"/>
        </mxCell>
        <mxCell id="bDNnM9pzQ9YGO85PiFF2-20" value="" style="edgeStyle=orthogonalEdgeStyle;rounded=0;orthogonalLoop=1;jettySize=auto;html=1;fontSize=11;" edge="1" parent="1" source="bDNnM9pzQ9YGO85PiFF2-3" target="bDNnM9pzQ9YGO85PiFF2-4">
          <mxGeometry relative="1" as="geometry"/>
        </mxCell>
        <mxCell id="bDNnM9pzQ9YGO85PiFF2-3" value="Delta" style="ellipse;whiteSpace=wrap;html=1;aspect=fixed;fillColor=#dae8fc;strokeColor=#6c8ebf;" vertex="1" parent="1">
          <mxGeometry x="240" y="280" width="80" height="80" as="geometry"/>
        </mxCell>
        <mxCell id="bDNnM9pzQ9YGO85PiFF2-21" value="" style="edgeStyle=orthogonalEdgeStyle;rounded=0;orthogonalLoop=1;jettySize=auto;html=1;fontSize=11;" edge="1" parent="1" source="bDNnM9pzQ9YGO85PiFF2-4" target="bDNnM9pzQ9YGO85PiFF2-5">
          <mxGeometry relative="1" as="geometry"/>
        </mxCell>
        <mxCell id="bDNnM9pzQ9YGO85PiFF2-4" value="Settlement Request Editor" style="ellipse;whiteSpace=wrap;html=1;aspect=fixed;fillColor=#dae8fc;strokeColor=#6c8ebf;" vertex="1" parent="1">
          <mxGeometry x="400" y="280" width="80" height="80" as="geometry"/>
        </mxCell>
        <mxCell id="bDNnM9pzQ9YGO85PiFF2-22" value="" style="edgeStyle=orthogonalEdgeStyle;rounded=0;orthogonalLoop=1;jettySize=auto;html=1;fontSize=11;entryX=0.75;entryY=1;entryDx=0;entryDy=0;" edge="1" parent="1" source="bDNnM9pzQ9YGO85PiFF2-5" target="bDNnM9pzQ9YGO85PiFF2-6">
          <mxGeometry relative="1" as="geometry"/>
        </mxCell>
        <mxCell id="bDNnM9pzQ9YGO85PiFF2-5" value="Quality Check" style="ellipse;whiteSpace=wrap;html=1;aspect=fixed;fillColor=#dae8fc;strokeColor=#6c8ebf;" vertex="1" parent="1">
          <mxGeometry x="560" y="280" width="80" height="80" as="geometry"/>
        </mxCell>
        <mxCell id="bDNnM9pzQ9YGO85PiFF2-18" style="edgeStyle=orthogonalEdgeStyle;rounded=0;orthogonalLoop=1;jettySize=auto;html=1;exitX=0.25;exitY=1;exitDx=0;exitDy=0;fontSize=11;" edge="1" parent="1" source="bDNnM9pzQ9YGO85PiFF2-6" target="bDNnM9pzQ9YGO85PiFF2-3">
          <mxGeometry relative="1" as="geometry"/>
        </mxCell>
        <mxCell id="bDNnM9pzQ9YGO85PiFF2-25" style="edgeStyle=orthogonalEdgeStyle;rounded=0;orthogonalLoop=1;jettySize=auto;html=1;exitX=1;exitY=0.5;exitDx=0;exitDy=0;entryX=0;entryY=0.5;entryDx=0;entryDy=0;fontSize=11;" edge="1" parent="1" source="bDNnM9pzQ9YGO85PiFF2-6" target="bDNnM9pzQ9YGO85PiFF2-13">
          <mxGeometry relative="1" as="geometry"/>
        </mxCell>
        <mxCell id="bDNnM9pzQ9YGO85PiFF2-6" value="Payment Batch Processor" style="rounded=1;whiteSpace=wrap;html=1;fillColor=#dae8fc;strokeColor=#6c8ebf;" vertex="1" parent="1">
          <mxGeometry x="240" y="160" width="400" height="80" as="geometry"/>
        </mxCell>
        <mxCell id="bDNnM9pzQ9YGO85PiFF2-10" value="Exceptions" style="ellipse;whiteSpace=wrap;html=1;aspect=fixed;fillColor=#f5f5f5;strokeColor=#666666;fontColor=#333333;" vertex="1" parent="1">
          <mxGeometry x="240" y="390" width="80" height="80" as="geometry"/>
        </mxCell>
        <mxCell id="bDNnM9pzQ9YGO85PiFF2-11" value="MI" style="ellipse;whiteSpace=wrap;html=1;aspect=fixed;fillColor=#f5f5f5;strokeColor=#666666;fontColor=#333333;" vertex="1" parent="1">
          <mxGeometry x="400" y="390" width="80" height="80" as="geometry"/>
        </mxCell>
        <mxCell id="bDNnM9pzQ9YGO85PiFF2-12" value="Cross Border Payment Engine" style="ellipse;whiteSpace=wrap;html=1;aspect=fixed;fillColor=#f5f5f5;strokeColor=#666666;fontColor=#333333;" vertex="1" parent="1">
          <mxGeometry x="560" y="390" width="80" height="80" as="geometry"/>
        </mxCell>
        <mxCell id="bDNnM9pzQ9YGO85PiFF2-26" value="" style="edgeStyle=orthogonalEdgeStyle;rounded=0;orthogonalLoop=1;jettySize=auto;html=1;fontSize=11;" edge="1" parent="1" source="bDNnM9pzQ9YGO85PiFF2-13" target="bDNnM9pzQ9YGO85PiFF2-14">
          <mxGeometry relative="1" as="geometry"/>
        </mxCell>
        <mxCell id="bDNnM9pzQ9YGO85PiFF2-13" value="Transformation&lt;br style=&quot;font-size: 11px;&quot;&gt;Layer" style="ellipse;whiteSpace=wrap;html=1;aspect=fixed;fontSize=11;fillColor=#e1d5e7;strokeColor=#9673a6;" vertex="1" parent="1">
          <mxGeometry x="760" y="160" width="80" height="80" as="geometry"/>
        </mxCell>
        <mxCell id="bDNnM9pzQ9YGO85PiFF2-14" value="DAX" style="ellipse;whiteSpace=wrap;html=1;aspect=fixed;fillColor=#f8cecc;strokeColor=#b85450;" vertex="1" parent="1">
          <mxGeometry x="920" y="160" width="80" height="80" as="geometry"/>
        </mxCell>
        <mxCell id="bDNnM9pzQ9YGO85PiFF2-29" value="CS PPA Recovery Pipeline" style="text;html=1;strokeColor=none;fillColor=none;align=center;verticalAlign=middle;whiteSpace=wrap;rounded=0;dashed=1;fontSize=40;" vertex="1" parent="1">
          <mxGeometry x="40" y="40" width="960" height="20" as="geometry"/>
        </mxCell>
        <mxCell id="bDNnM9pzQ9YGO85PiFF2-31" value="" style="endArrow=none;dashed=1;html=1;fontSize=40;entryX=0;entryY=1;entryDx=0;entryDy=0;" edge="1" parent="1" target="bDNnM9pzQ9YGO85PiFF2-4">
          <mxGeometry width="50" height="50" relative="1" as="geometry">
            <mxPoint x="300" y="550" as="sourcePoint"/>
            <mxPoint x="330" y="540" as="targetPoint"/>
          </mxGeometry>
        </mxCell>
        <mxCell id="bDNnM9pzQ9YGO85PiFF2-32" value="Hold in SRE until CS operations enrich payment request with EU reporting data and CPAT determine ledger assignation." style="text;html=1;strokeColor=none;fillColor=none;align=left;verticalAlign=middle;whiteSpace=wrap;rounded=0;dashed=1;fontSize=12;" vertex="1" parent="1">
          <mxGeometry x="260" y="560" width="280" height="20" as="geometry"/>
        </mxCell>
      </root>
    </mxGraphModel>
  </diagram>
</mxfile>
